<svg xmlns="http://www.w3.org/2000/svg" xmlns:xlink="http://www.w3.org/1999/xlink" xmlns:xodm="http://www.corel.com/coreldraw/odm/2003" xml:space="preserve" version="1.1" style="shape-rendering:geometricPrecision;text-rendering:geometricPrecision;image-rendering:optimizeQuality;" viewBox="0 0 846.66 1058.325" x="0px" y="0px" fill-rule="evenodd" clip-rule="evenodd"><defs><style type="text/css">
   
    .fil0 {fill:#8f8f8f;fill-rule:nonzero}
   
  </style></defs><g><path class="fil0" d="M132.8 8.46l581.06 0c68.43,0 124.34,55.91 124.34,124.34l0 581.06c0,68.42 -55.91,124.34 -124.34,124.34l-581.06 0c-68.42,0 -124.34,-55.91 -124.34,-124.34l0 -581.06c0,-68.43 55.91,-124.34 124.34,-124.34zm502.71 497.43c18.89,0 34.19,-15.31 34.19,-34.2 0,-18.89 -15.3,-34.2 -34.19,-34.2 -18.89,0 -34.2,15.31 -34.2,34.2 0,18.89 15.31,34.2 34.2,34.2zm21.11 39.26l0 80.69c0,27.8 -42.22,27.8 -42.22,0l0 -80.69c-32.67,-9.37 -55.31,-39.34 -55.31,-73.46 0,-34.11 22.64,-64.09 55.31,-73.46l0 -177.41c0,-27.8 42.22,-27.8 42.22,0l0 177.41c32.66,9.37 55.3,39.35 55.3,73.46 0,34.11 -22.64,64.09 -55.3,73.46zm-233.29 -190.14c18.89,0 34.2,-15.3 34.2,-34.19 0,-18.89 -15.31,-34.2 -34.2,-34.2 -18.89,0 -34.19,15.31 -34.19,34.2 0,18.89 15.3,34.19 34.19,34.19zm21.11 39.27l0 231.56c0,27.8 -42.22,27.8 -42.22,0l0 -231.56c-32.66,-9.38 -55.3,-39.34 -55.3,-73.46 0,-34.12 22.63,-64.09 55.3,-73.46l0 -26.54c0,-27.8 42.22,-27.8 42.22,0l0 26.54c32.67,9.38 55.31,39.34 55.31,73.46 0,34.12 -22.64,64.08 -55.31,73.46zm-233.28 129.24c18.89,0 34.2,-15.31 34.2,-34.2 0,-18.89 -15.31,-34.2 -34.2,-34.2 -18.89,0 -34.2,15.31 -34.2,34.2 0,18.89 15.31,34.2 34.2,34.2zm21.11 39.26l0 63.06c0,27.8 -42.22,27.8 -42.22,0l0 -63.06c-32.67,-9.38 -55.31,-39.34 -55.31,-73.46 0,-34.11 22.64,-64.09 55.31,-73.46l0 -195.04c0,-27.8 42.22,-27.8 42.22,0l0 195.04c32.66,9.37 55.3,39.35 55.3,73.46 0,34.12 -22.64,64.09 -55.3,73.46zm481.59 -512.1l-581.06 0c-45.12,0 -82.12,37 -82.12,82.12l0 581.06c0,45.12 37,82.12 82.12,82.12l581.06 0c45.12,0 82.12,-37 82.12,-82.12l0 -581.06c0,-45.13 -37,-82.12 -82.12,-82.12z"/></g><text x="0" y="861.66" fill="#000000" font-size="5px" font-weight="bold" font-family="'Helvetica Neue', Helvetica, Arial-Unicode, Arial, Sans-serif">Created by Zero Team0</text><text x="0" y="866.66" fill="#000000" font-size="5px" font-weight="bold" font-family="'Helvetica Neue', Helvetica, Arial-Unicode, Arial, Sans-serif">from the Noun Project</text></svg>