<svg xmlns="http://www.w3.org/2000/svg" version="1.1" viewBox="-5.0 -10.0 110.0 135.0">
 <path d="m77.512 74.785c0 4.3203-0.62891 4.3203-3.2812 4.3203h-10.918v-0.011719-14.559c0-7.125-5.793-12.918-12.918-12.918-7.1211 0-12.918 5.793-12.918 12.918v14.559 0.011719h-10.918c-1.9023 0-3.2812 0-3.2812-5.3203v-39.25l27.035-13.52c0.050781-0.023437 0.11328-0.023437 0.16406 0l27.035 13.52zm-18.195 4.3203h-17.84v-0.011719-14.559c0-4.918 4-8.918 8.918-8.918s8.918 4 8.918 8.918v14.559c0 0.003906 0.003906 0.007812 0.003906 0.011719zm28.367-43.957-35.418-17.711c-1.1719-0.58594-2.5703-0.58594-3.7422 0l-35.418 17.711c-0.98828 0.49219-1.3867 1.6953-0.89453 2.6836 0.49219 0.98828 1.6953 1.3867 2.6836 0.89453l4.3828-2.1914v37.25c0 4.3398 0.82812 9.3203 7.2812 9.3203h47.672c5.3086 0 7.2812-2.2539 7.2812-8.3203v-38.25l4.3828 2.1914c0.28906 0.14453 0.59375 0.21094 0.89453 0.21094 0.73438 0 1.4375-0.40625 1.7891-1.1055 0.49609-0.98828 0.09375-2.1914-0.89453-2.6836z" fill-rule="evenodd" fill="#000000"/>
</svg>