<svg xmlns="http://www.w3.org/2000/svg" version="1.1" viewBox="-5.0 -10.0 110.0 135.0">
 <g>
  <path d="m55.105 18.742c3.4297-0.03125 6.1914-2.8164 6.1914-6.2461 0-3.4258-2.7656-6.2148-6.1914-6.2461-3.4258 0.03125-6.1914 2.8203-6.1914 6.2461 0 3.4297 2.7656 6.2148 6.1914 6.2461zm0-10.129c2.1289 0.023438 3.8398 1.7578 3.8398 3.8828 0 2.1289-1.7148 3.8594-3.8398 3.8828-2.125-0.023437-3.8398-1.7539-3.8398-3.8828 0-2.125 1.7148-3.8594 3.8398-3.8828z" fill="#000000"/>
  <path d="m42.797 36.703c-0.69531 1.0352-0.76562 2.3711-0.18359 3.4805 0.58203 1.1055 1.7266 1.8008 2.9766 1.8125 0.71484 0 1.4062-0.23047 1.9805-0.65234l5.0234-3.6836v2.293c0 0.32812-0.125 0.64844-0.34766 0.89062l-6.0469 6.5938c-0.58594 0.65625-0.95703 1.4766-1.0625 2.3516l-1.3203 11.926c-0.25391 1.8789 1.0586 3.6133 2.9414 3.8789 1.8789 0.26562 3.6211-1.0391 3.8984-2.9141l1.5469-10.07h0.003906c0.058594-0.41797 0.27344-0.80078 0.59766-1.0703l4.3906-3.7344 6.5586 16.488v0.003906c0.65234 1.6484 2.3867 2.6016 4.1289 2.2656 1.7422-0.33984 2.9961-1.8672 2.9883-3.6406-0.59375-2.5273-1.3281-5.0234-2.1914-7.4688l11.145 8.082v-0.003906c0.53125 0.36719 1.2539 0.24219 1.6328-0.27734 0.37891-0.51953 0.26953-1.25-0.24219-1.6367l-13.746-9.9648-3.3398-10.477c0.37891 0.15234 0.15234-11.773 0.21484-12.172 0.15625 0.16797 1.2656 0.74219 1.2031 1.0273v10.109c0 1.7734 1.4375 3.207 3.2109 3.207 1.7695 0 3.207-1.4336 3.207-3.207v-12.375c-0.003906-1.0703-0.51953-2.0742-1.3867-2.6992l-7.0938-5.0625c-1.4258-0.94922-3.1445-1.3555-4.8438-1.1523-1.7344 0.007813-3.3828 0.75-4.5312 2.0469-1.8555 1.8086-1.5117 5.0352-1.5156 7.3789l-8.043 6.7734-24.375-17.668c-0.52734-0.36328-1.2539-0.23828-1.6289 0.28125-0.37891 0.51953-0.26953 1.2461 0.24219 1.6367zm24.887 27.469c-0.68359 0.26953-1.457-0.066406-1.7305-0.75l-6.8516-17.234 3.3008-2.8047 2.8984 9.1758c0.011719 0.042968 0.027344 0.089844 0.042969 0.13281l3.1055 9.832c0.19531 0.66406-0.13281 1.3711-0.76562 1.6484zm-12.727-39.27c0.015625-2.0273 1.6562-3.668 3.6836-3.6836 1.1992-0.17578 2.4219 0.074219 3.4609 0.70312l7.0977 5.0664c0.25391 0.17578 0.40234 0.46875 0.40234 0.77734v12.375c0 0.46484-0.37891 0.84375-0.84375 0.84375-0.46875 0-0.84375-0.37891-0.84375-0.84375v-10.105c0-0.875-0.42187-1.6953-1.1367-2.1992-1.0039-0.61328-2.4531-2.2617-3.7656-1.4844-0.63281 0.3125-1.0312 0.95703-1.0312 1.6602l-0.015625 12.051c-0.007813 0.38281-0.17969 0.74609-0.47266 0.99219l-10.207 8.6758v-0.003907c-0.76172 0.64063-1.2656 1.5352-1.418 2.5156l-1.5508 10.074h0.003906c-0.078124 0.56641-0.58203 0.97656-1.1562 0.9375-0.57031-0.039062-1.0117-0.51172-1.0156-1.082l1.3359-12.105c0.046875-0.38672 0.21094-0.74609 0.46484-1.0391l6.0352-6.582v0.003907c0.62891-0.67969 0.97656-1.5703 0.97266-2.4961zm-2.3633 9.8242-6.418 4.7109c-0.44531 0.30469-1.0547 0.21094-1.3867-0.21484-0.33203-0.42578-0.27344-1.0352 0.12891-1.3945l7.6719-6.457z" fill="#000000"/>
  <path d="m79.766 84.211h-10.758v-6.6562c0-1.0703-0.86719-1.9375-1.9375-1.9375h-12.109v-7.4414c-0.003907-1.0664-0.87109-1.9336-1.9375-1.9336h-12.492v-7.8945c0-1.0664-0.86719-1.9336-1.9336-1.9336l-17.449 0.003907c-1.5742 0-2.8477 1.2734-2.8477 2.8477v31.148c0 1.8398 1.4922 3.332 3.3359 3.3359h58.129c1.0664 0 1.9336-0.86719 1.9375-1.9375v-5.668c-0.003906-1.0664-0.87109-1.9336-1.9375-1.9336zm-0.42969 7.1758h-57.699c-0.53516-0.003907-0.97266-0.4375-0.97266-0.97266v-31.148c0-0.26562 0.21484-0.48438 0.48438-0.48438l17.02-0.003906v7.8906c0 1.0703 0.86719 1.9375 1.9375 1.9375h12.488v7.4414c0 1.0664 0.86719 1.9336 1.9375 1.9336h12.113v6.6562c0 1.0703 0.86719 1.9375 1.9336 1.9375h10.758z" fill="#000000"/>
 </g>
</svg>